<svg xmlns="http://www.w3.org/2000/svg" viewBox="0 0 600 56080">
  <defs>
    <style type="text/css">
      @import url('https://rsms.me/inter/inter.css');
      text {
        font-family: Inter, -apple-system, BlinkMacSystemFont, "Segoe UI", Roboto, Helvetica, Arial, sans-serif, "Apple Color Emoji", "Segoe UI Emoji", "Segoe UI Symbol";
        font-size: 40px;
        font-weight: 900;
      }
    </style>
  </defs>
  <rect fill="#202124" x="0" y="0" width="600" height="56080"/>
  <text x="40" y="90" fill="#0048ba">Absolute Zero</text><text x="40" y="160" fill="#b0bf1a">Acid Green</text><text x="40" y="230" fill="#7cb9e8">Aero</text><text x="40" y="300" fill="#b284be">African Violet</text><text x="40" y="370" fill="#72a0c1">Air Superiority Blue</text><text x="40" y="440" fill="#f0f8ff">Alice Blue</text><text x="40" y="510" fill="#db2d43">Alizarin</text><text x="40" y="580" fill="#c46210">Alloy Orange</text><text x="40" y="650" fill="#eed9c4">Almond</text><text x="40" y="720" fill="#9f2b68">Amaranth Deep Purple</text><text x="40" y="790" fill="#f19cbb">Amaranth Pink</text><text x="40" y="860" fill="#ab274f">Amaranth Purple</text><text x="40" y="930" fill="#3b7a57">Amazon</text><text x="40" y="1000" fill="#ffbf00">Amber</text><text x="40" y="1070" fill="#9966cc">Amethyst</text><text x="40" y="1140" fill="#3ddc84">Android Green</text><text x="40" y="1210" fill="#c88a65">Antique Brass</text><text x="40" y="1280" fill="#665d1e">Antique Bronze</text><text x="40" y="1350" fill="#915c83">Antique Fuchsia</text><text x="40" y="1420" fill="#841b2d">Antique Ruby</text><text x="40" y="1490" fill="#faebd7">Antique White</text><text x="40" y="1560" fill="#fbceb1">Apricot</text><text x="40" y="1630" fill="#00ffff">Aqua</text><text x="40" y="1700" fill="#7fffd4">Aquamarine</text><text x="40" y="1770" fill="#d0ff14">Arctic Lime</text><text x="40" y="1840" fill="#4b6f44">Artichoke Green</text><text x="40" y="1910" fill="#e9d66b">Arylide Yellow</text><text x="40" y="1980" fill="#b2beb5">Ash Gray</text><text x="40" y="2050" fill="#ff9966">Atomic Tangerine</text><text x="40" y="2120" fill="#fdee00">Aureolin</text><text x="40" y="2190" fill="#007fff">Azure</text><text x="40" y="2260" fill="#2e5894">B'dazzled Blue</text><text x="40" y="2330" fill="#89cff0">Baby Blue</text><text x="40" y="2400" fill="#a1caf1">Baby Blue Eyes</text><text x="40" y="2470" fill="#f4c2c2">Baby Pink</text><text x="40" y="2540" fill="#fefefa">Baby Powder</text><text x="40" y="2610" fill="#ff91af">Baker-Miller Pink</text><text x="40" y="2680" fill="#fae7b5">Banana Mania</text><text x="40" y="2750" fill="#da1884">Barbie Pink</text><text x="40" y="2820" fill="#7c0a02">Barn Red</text><text x="40" y="2890" fill="#848482">Battleship Grey</text><text x="40" y="2960" fill="#bcd4e6">Beau Blue</text><text x="40" y="3030" fill="#9f8170">Beaver</text><text x="40" y="3100" fill="#f5f5dc">Beige</text><text x="40" y="3170" fill="#9c2542">Big Dip O’ruby</text><text x="40" y="3240" fill="#ffe4c4">Bisque</text><text x="40" y="3310" fill="#3d2b1f">Bistre</text><text x="40" y="3380" fill="#967117">Bistre Brown</text><text x="40" y="3450" fill="#cae00d">Bitter Lemon</text><text x="40" y="3520" fill="#000000">Black</text><text x="40" y="3590" fill="#bfafb2">Black Shadows</text><text x="40" y="3660" fill="#3d0c02">Black Bean</text><text x="40" y="3730" fill="#54626f">Black Coral</text><text x="40" y="3800" fill="#3b3c36">Black Olive</text><text x="40" y="3870" fill="#ffebcd">Blanched Almond</text><text x="40" y="3940" fill="#a57164">Blast-Off Bronze</text><text x="40" y="4010" fill="#318ce7">Bleu De France</text><text x="40" y="4080" fill="#ace5ee">Blizzard Blue</text><text x="40" y="4150" fill="#660000">Blood Red</text><text x="40" y="4220" fill="#0000ff">Blue</text><text x="40" y="4290" fill="#a2a2d0">Blue Bell</text><text x="40" y="4360" fill="#5dadec">Blue Jeans</text><text x="40" y="4430" fill="#126180">Blue Sapphire</text><text x="40" y="4500" fill="#5072a7">Blue Yonder</text><text x="40" y="4570" fill="#6699cc">Blue-Gray</text><text x="40" y="4640" fill="#8a2be2">Blue-Violet</text><text x="40" y="4710" fill="#3c69e7">Bluetiful</text><text x="40" y="4780" fill="#de5d83">Blush</text><text x="40" y="4850" fill="#79443b">Bole</text><text x="40" y="4920" fill="#e3dac9">Bone</text><text x="40" y="4990" fill="#cb4154">Brick Red</text><text x="40" y="5060" fill="#d891ef">Bright Lilac</text><text x="40" y="5130" fill="#ffaa1d">Bright Yellow</text><text x="40" y="5200" fill="#004225">British Racing Green</text><text x="40" y="5270" fill="#cd7f32">Bronze</text><text x="40" y="5340" fill="#964b00">Brown</text><text x="40" y="5410" fill="#af6e4d">Brown Sugar</text><text x="40" y="5480" fill="#7bb661">Bud Green</text><text x="40" y="5550" fill="#ffc680">Buff</text><text x="40" y="5620" fill="#800020">Burgundy</text><text x="40" y="5690" fill="#deb887">Burlywood</text><text x="40" y="5760" fill="#a17a74">Burnished Brown</text><text x="40" y="5830" fill="#cc5500">Burnt Orange</text><text x="40" y="5900" fill="#e97451">Burnt Sienna</text><text x="40" y="5970" fill="#8a3324">Burnt Umber</text><text x="40" y="6040" fill="#bd33a4">Byzantine</text><text x="40" y="6110" fill="#702963">Byzantium</text><text x="40" y="6180" fill="#5f9ea0">Cadet Blue</text><text x="40" y="6250" fill="#91a3b0">Cadet Grey</text><text x="40" y="6320" fill="#006b3c">Cadmium Green</text><text x="40" y="6390" fill="#ed872d">Cadmium Orange</text><text x="40" y="6460" fill="#a67b5b">Café Au Lait</text><text x="40" y="6530" fill="#4b3621">Café Noir</text><text x="40" y="6600" fill="#a3c1ad">Cambridge Blue</text><text x="40" y="6670" fill="#c19a6b">Camel</text><text x="40" y="6740" fill="#efbbcc">Cameo Pink</text><text x="40" y="6810" fill="#ffff99">Canary</text><text x="40" y="6880" fill="#ffef00">Canary Yellow</text><text x="40" y="6950" fill="#e4717a">Candy Pink</text><text x="40" y="7020" fill="#c41e3a">Cardinal</text><text x="40" y="7090" fill="#00cc99">Caribbean Green</text><text x="40" y="7160" fill="#960018">Carmine</text><text x="40" y="7230" fill="#ffa6c9">Carnation Pink</text><text x="40" y="7300" fill="#b31b1b">Carnelian</text><text x="40" y="7370" fill="#56a0d3">Carolina Blue</text><text x="40" y="7440" fill="#ed9121">Carrot Orange</text><text x="40" y="7510" fill="#703642">Catawba</text><text x="40" y="7580" fill="#c95a49">Cedar Chest</text><text x="40" y="7650" fill="#ace1af">Celadon</text><text x="40" y="7720" fill="#b2ffff">Celeste</text><text x="40" y="7790" fill="#de3163">Cerise</text><text x="40" y="7860" fill="#007ba7">Cerulean</text><text x="40" y="7930" fill="#2a52be">Cerulean Blue</text><text x="40" y="8000" fill="#6d9bc3">Cerulean Frost</text><text x="40" y="8070" fill="#f7e7ce">Champagne</text><text x="40" y="8140" fill="#f1ddcf">Champagne Pink</text><text x="40" y="8210" fill="#36454f">Charcoal</text><text x="40" y="8280" fill="#e68fac">Charm Pink</text><text x="40" y="8350" fill="#80ff00">Chartreuse</text><text x="40" y="8420" fill="#ffb7c5">Cherry Blossom Pink</text><text x="40" y="8490" fill="#954535">Chestnut</text><text x="40" y="8560" fill="#e23d28">Chili Red</text><text x="40" y="8630" fill="#de6fa1">China Pink</text><text x="40" y="8700" fill="#aa381e">Chinese Red</text><text x="40" y="8770" fill="#856088">Chinese Violet</text><text x="40" y="8840" fill="#ffb200">Chinese Yellow</text><text x="40" y="8910" fill="#7b3f00">Chocolate</text><text x="40" y="8980" fill="#98817b">Cinereous</text><text x="40" y="9050" fill="#e34234">Cinnabar</text><text x="40" y="9120" fill="#cd607e">Cinnamon Satin</text><text x="40" y="9190" fill="#e4d00a">Citrine</text><text x="40" y="9260" fill="#9fa91f">Citron</text><text x="40" y="9330" fill="#7f1734">Claret</text><text x="40" y="9400" fill="#6f4e37">Coffee</text><text x="40" y="9470" fill="#b9d9eb">Columbia Blue</text><text x="40" y="9540" fill="#f88379">Congo Pink</text><text x="40" y="9610" fill="#8c92ac">Cool Grey</text><text x="40" y="9680" fill="#b87333">Copper</text><text x="40" y="9750" fill="#ad6f69">Copper Penny</text><text x="40" y="9820" fill="#cb6d51">Copper Red</text><text x="40" y="9890" fill="#996666">Copper Rose</text><text x="40" y="9960" fill="#ff3800">Coquelicot</text><text x="40" y="10030" fill="#ff7f50">Coral</text><text x="40" y="10100" fill="#f88379">Coral Pink</text><text x="40" y="10170" fill="#893f45">Cordovan</text><text x="40" y="10240" fill="#fbec5d">Corn</text><text x="40" y="10310" fill="#6495ed">Cornflower Blue</text><text x="40" y="10380" fill="#fff8dc">Cornsilk</text><text x="40" y="10450" fill="#2e2d88">Cosmic Cobalt</text><text x="40" y="10520" fill="#fff8e7">Cosmic Latte</text><text x="40" y="10590" fill="#ffbcd9">Cotton Candy</text><text x="40" y="10660" fill="#81613c">Coyote Brown</text><text x="40" y="10730" fill="#fffdd0">Cream</text><text x="40" y="10800" fill="#dc143c">Crimson</text><text x="40" y="10870" fill="#f5f5f5">Cultured Pearl</text><text x="40" y="10940" fill="#00ffff">Cyan</text><text x="40" y="11010" fill="#58427c">Cyber Grape</text><text x="40" y="11080" fill="#ffd300">Cyber Yellow</text><text x="40" y="11150" fill="#f56fa1">Cyclamen</text><text x="40" y="11220" fill="#fed85d">Dandelion</text><text x="40" y="11290" fill="#654321">Dark Brown</text><text x="40" y="11360" fill="#5d3954">Dark Byzantium</text><text x="40" y="11430" fill="#008b8b">Dark Cyan</text><text x="40" y="11500" fill="#536878">Dark Electric Blue</text><text x="40" y="11570" fill="#b8860b">Dark Goldenrod</text><text x="40" y="11640" fill="#006400">Dark Green</text><text x="40" y="11710" fill="#1a2421">Dark Jungle Green</text><text x="40" y="11780" fill="#bdb76b">Dark Khaki</text><text x="40" y="11850" fill="#483c32">Dark Lava</text><text x="40" y="11920" fill="#543d37">Dark Liver</text><text x="40" y="11990" fill="#8b008b">Dark Magenta</text><text x="40" y="12060" fill="#556b2f">Dark Olive Green</text><text x="40" y="12130" fill="#ff8c00">Dark Orange</text><text x="40" y="12200" fill="#9932cc">Dark Orchid</text><text x="40" y="12270" fill="#301934">Dark Purple</text><text x="40" y="12340" fill="#8b0000">Dark Red</text><text x="40" y="12410" fill="#e9967a">Dark Salmon</text><text x="40" y="12480" fill="#8fbc8f">Dark Sea Green</text><text x="40" y="12550" fill="#3c1414">Dark Sienna</text><text x="40" y="12620" fill="#8cbed6">Dark Sky Blue</text><text x="40" y="12690" fill="#483d8b">Dark Slate Blue</text><text x="40" y="12760" fill="#2f4f4f">Dark Slate Gray</text><text x="40" y="12830" fill="#177245">Dark Spring Green</text><text x="40" y="12900" fill="#00ced1">Dark Turquoise</text><text x="40" y="12970" fill="#9400d3">Dark Violet</text><text x="40" y="13040" fill="#555555">Davy's Grey</text><text x="40" y="13110" fill="#4a646c">Deep Space Sparkle</text><text x="40" y="13180" fill="#da3287">Deep Cerise</text><text x="40" y="13250" fill="#fad6a5">Deep Champagne</text><text x="40" y="13320" fill="#b94e48">Deep Chestnut</text><text x="40" y="13390" fill="#004b49">Deep Jungle Green</text><text x="40" y="13460" fill="#ff1493">Deep Pink</text><text x="40" y="13530" fill="#ff9933">Deep Saffron</text><text x="40" y="13600" fill="#00bfff">Deep Sky Blue</text><text x="40" y="13670" fill="#7e5e60">Deep Taupe</text><text x="40" y="13740" fill="#1560bd">Denim</text><text x="40" y="13810" fill="#2243b6">Denim Blue</text><text x="40" y="13880" fill="#c19a6b">Desert</text><text x="40" y="13950" fill="#edc9af">Desert Sand</text><text x="40" y="14020" fill="#696969">Dim Gray</text><text x="40" y="14090" fill="#1e90ff">Dodger Blue</text><text x="40" y="14160" fill="#4a412a">Drab Dark Brown</text><text x="40" y="14230" fill="#00009c">Duke Blue</text><text x="40" y="14300" fill="#efdfbb">Dutch White</text><text x="40" y="14370" fill="#555d50">Ebony</text><text x="40" y="14440" fill="#c2b280">Ecru</text><text x="40" y="14510" fill="#1b1b1b">Eerie Black</text><text x="40" y="14580" fill="#614051">Eggplant</text><text x="40" y="14650" fill="#f0ead6">Eggshell</text><text x="40" y="14720" fill="#ccff00">Electric Lime</text><text x="40" y="14790" fill="#bf00ff">Electric Purple</text><text x="40" y="14860" fill="#8f00ff">Electric Violet</text><text x="40" y="14930" fill="#50c878">Emerald</text><text x="40" y="15000" fill="#6c3082">Eminence</text><text x="40" y="15070" fill="#b48395">English Lavender</text><text x="40" y="15140" fill="#ab4b52">English Red</text><text x="40" y="15210" fill="#cc474b">English Vermillion</text><text x="40" y="15280" fill="#563c5c">English Violet</text><text x="40" y="15350" fill="#00ff40">Erin</text><text x="40" y="15420" fill="#96c8a2">Eton Blue</text><text x="40" y="15490" fill="#c19a6b">Fallow</text><text x="40" y="15560" fill="#801818">Falu Red</text><text x="40" y="15630" fill="#b53389">Fandango</text><text x="40" y="15700" fill="#de5285">Fandango Pink</text><text x="40" y="15770" fill="#e5aa70">Fawn</text><text x="40" y="15840" fill="#4f7942">Fern Green</text><text x="40" y="15910" fill="#6c541e">Field Drab</text><text x="40" y="15980" fill="#ff5470">Fiery Rose</text><text x="40" y="16050" fill="#683068">Finn</text><text x="40" y="16120" fill="#ce2029">Fire Engine Red</text><text x="40" y="16190" fill="#b22222">Firebrick</text><text x="40" y="16260" fill="#e25822">Flame</text><text x="40" y="16330" fill="#eedc82">Flax</text><text x="40" y="16400" fill="#a2006d">Flirt</text><text x="40" y="16470" fill="#fffaf0">Floral White</text><text x="40" y="16540" fill="#228b22">Forest Green</text><text x="40" y="16610" fill="#a67b5b">French Beige</text><text x="40" y="16680" fill="#856d4d">French Bistre</text><text x="40" y="16750" fill="#0072bb">French Blue</text><text x="40" y="16820" fill="#fd3f92">French Fuchsia</text><text x="40" y="16890" fill="#86608e">French Lilac</text><text x="40" y="16960" fill="#9efd38">French Lime</text><text x="40" y="17030" fill="#d473d4">French Mauve</text><text x="40" y="17100" fill="#fd6c9e">French Pink</text><text x="40" y="17170" fill="#c72c48">French Raspberry</text><text x="40" y="17240" fill="#77b5fe">French Sky Blue</text><text x="40" y="17310" fill="#8806ce">French Violet</text><text x="40" y="17380" fill="#e936a7">Frostbite</text><text x="40" y="17450" fill="#ff00ff">Fuchsia</text><text x="40" y="17520" fill="#e48400">Fulvous</text><text x="40" y="17590" fill="#87421f">Fuzzy Wuzzy</text><text x="40" y="17660" fill="#00ab66">GO Green</text><text x="40" y="17730" fill="#dcdcdc">Gainsboro</text><text x="40" y="17800" fill="#e49b0f">Gamboge</text><text x="40" y="17870" fill="#007f66">Generic Viridian</text><text x="40" y="17940" fill="#f8f8ff">Ghost White</text><text x="40" y="18010" fill="#6082b6">Glaucous</text><text x="40" y="18080" fill="#ab92b3">Glossy Grape</text><text x="40" y="18150" fill="#e6be8a">Gold</text><text x="40" y="18220" fill="#85754e">Gold Fusion</text><text x="40" y="18290" fill="#996515">Golden Brown</text><text x="40" y="18360" fill="#fcc200">Golden Poppy</text><text x="40" y="18430" fill="#ffdf00">Golden Yellow</text><text x="40" y="18500" fill="#daa520">Goldenrod</text><text x="40" y="18570" fill="#00573f">Gotham Green</text><text x="40" y="18640" fill="#676767">Granite Gray</text><text x="40" y="18710" fill="#a8e4a0">Granny Smith Apple</text><text x="40" y="18780" fill="#bebebe">Gray</text><text x="40" y="18850" fill="#00ff00">Green</text><text x="40" y="18920" fill="#a7f432">Green Lizard</text><text x="40" y="18990" fill="#6eaea1">Green Sheen</text><text x="40" y="19060" fill="#1164b4">Green-Blue</text><text x="40" y="19130" fill="#2a3439">Gunmetal</text><text x="40" y="19200" fill="#e9d66b">Hansa Yellow</text><text x="40" y="19270" fill="#3fff00">Harlequin</text><text x="40" y="19340" fill="#da9100">Harvest Gold</text><text x="40" y="19410" fill="#ff7a00">Heat Wave</text><text x="40" y="19480" fill="#df73ff">Heliotrope</text><text x="40" y="19550" fill="#aa98a9">Heliotrope Gray</text><text x="40" y="19620" fill="#f400a1">Hollywood Cerise</text><text x="40" y="19690" fill="#006db0">Honolulu Blue</text><text x="40" y="19760" fill="#49796b">Hooker's Green</text><text x="40" y="19830" fill="#ff1dce">Hot Magenta</text><text x="40" y="19900" fill="#ff69b4">Hot Pink</text><text x="40" y="19970" fill="#355e3b">Hunter Green</text><text x="40" y="20040" fill="#71a6d2">Iceberg</text><text x="40" y="20110" fill="#319177">Illuminating Emerald</text><text x="40" y="20180" fill="#ed2939">Imperial Red</text><text x="40" y="20250" fill="#b2ec5d">Inchworm</text><text x="40" y="20320" fill="#4c516d">Independence</text><text x="40" y="20390" fill="#138808">India Green</text><text x="40" y="20460" fill="#cd5c5c">Indian Red</text><text x="40" y="20530" fill="#e3a857">Indian Yellow</text><text x="40" y="20600" fill="#6a5dff">Indigo</text><text x="40" y="20670" fill="#00416a">Indigo Dye</text><text x="40" y="20740" fill="#130a8f">International Klein Blue</text><text x="40" y="20810" fill="#c0362c">International Orange</text><text x="40" y="20880" fill="#b3446c">Irresistible</text><text x="40" y="20950" fill="#f4f0ec">Isabelline</text><text x="40" y="21020" fill="#b2ffff">Italian Sky Blue</text><text x="40" y="21090" fill="#fffff0">Ivory</text><text x="40" y="21160" fill="#9d2933">Japanese Carmine</text><text x="40" y="21230" fill="#5b3256">Japanese Violet</text><text x="40" y="21300" fill="#f8de7e">Jasmine</text><text x="40" y="21370" fill="#a50b5e">Jazzberry Jam</text><text x="40" y="21440" fill="#343434">Jet</text><text x="40" y="21510" fill="#f4ca16">Jonquil</text><text x="40" y="21580" fill="#bdda57">June Bud</text><text x="40" y="21650" fill="#29ab87">Jungle Green</text><text x="40" y="21720" fill="#512888">KSU Purple</text><text x="40" y="21790" fill="#4cbb17">Kelly Green</text><text x="40" y="21860" fill="#3ab09e">Keppel</text><text x="40" y="21930" fill="#e8f48c">Key Lime</text><text x="40" y="22000" fill="#f0e68c">Khaki</text><text x="40" y="22070" fill="#882d17">Kobe</text><text x="40" y="22140" fill="#e79fc4">Kobi</text><text x="40" y="22210" fill="#6b4423">Kobicha</text><text x="40" y="22280" fill="#d6cadd">Languid Lavender</text><text x="40" y="22350" fill="#26619c">Lapis Lazuli</text><text x="40" y="22420" fill="#ffff66">Laser Lemon</text><text x="40" y="22490" fill="#a9ba9d">Laurel Green</text><text x="40" y="22560" fill="#cf1020">Lava</text><text x="40" y="22630" fill="#b57edc">Lavender</text><text x="40" y="22700" fill="#ccccff">Lavender Blue</text><text x="40" y="22770" fill="#fff0f5">Lavender Blush</text><text x="40" y="22840" fill="#c4c3d0">Lavender Gray</text><text x="40" y="22910" fill="#7cfc00">Lawn Green</text><text x="40" y="22980" fill="#fff700">Lemon</text><text x="40" y="23050" fill="#fffacd">Lemon Chiffon</text><text x="40" y="23120" fill="#cca01d">Lemon Curry</text><text x="40" y="23190" fill="#fdff00">Lemon Glacier</text><text x="40" y="23260" fill="#f6eabe">Lemon Meringue</text><text x="40" y="23330" fill="#fff44f">Lemon Yellow</text><text x="40" y="23400" fill="#545aa7">Liberty</text><text x="40" y="23470" fill="#c8ad7f">Light French Beige</text><text x="40" y="23540" fill="#add8e6">Light Blue</text><text x="40" y="23610" fill="#f08080">Light Coral</text><text x="40" y="23680" fill="#93ccea">Light Cornflower Blue</text><text x="40" y="23750" fill="#e0ffff">Light Cyan</text><text x="40" y="23820" fill="#fafad2">Light Goldenrod Yellow</text><text x="40" y="23890" fill="#d3d3d3">Light Gray</text><text x="40" y="23960" fill="#90ee90">Light Green</text><text x="40" y="24030" fill="#fed8b1">Light Orange</text><text x="40" y="24100" fill="#c5cbe1">Light Periwinkle</text><text x="40" y="24170" fill="#ffb6c1">Light Pink</text><text x="40" y="24240" fill="#ffa07a">Light Salmon</text><text x="40" y="24310" fill="#20b2aa">Light Sea Green</text><text x="40" y="24380" fill="#87cefa">Light Sky Blue</text><text x="40" y="24450" fill="#778899">Light Slate Gray</text><text x="40" y="24520" fill="#b0c4de">Light Steel Blue</text><text x="40" y="24590" fill="#ffffe0">Light Yellow</text><text x="40" y="24660" fill="#c8a2c8">Lilac</text><text x="40" y="24730" fill="#ae98aa">Lilac Luster</text><text x="40" y="24800" fill="#bfff00">Lime</text><text x="40" y="24870" fill="#32cd32">Lime Green</text><text x="40" y="24940" fill="#195905">Lincoln Green</text><text x="40" y="25010" fill="#faf0e6">Linen</text><text x="40" y="25080" fill="#decc9c">Lion</text><text x="40" y="25150" fill="#de6fa1">Liseran Purple</text><text x="40" y="25220" fill="#6ca0dc">Little Boy Blue</text><text x="40" y="25290" fill="#674c47">Liver</text><text x="40" y="25360" fill="#987456">Liver Chestnut</text><text x="40" y="25430" fill="#6699cc">Livid</text><text x="40" y="25500" fill="#18453b">MSU Green</text><text x="40" y="25570" fill="#ffbd88">Macaroni and Cheese</text><text x="40" y="25640" fill="#cc3336">Madder Lake</text><text x="40" y="25710" fill="#ff00ff">Magenta</text><text x="40" y="25780" fill="#9f4576">Magenta Haze</text><text x="40" y="25850" fill="#aaf0d1">Magic Mint</text><text x="40" y="25920" fill="#f2e8d7">Magnolia</text><text x="40" y="25990" fill="#c04000">Mahogany</text><text x="40" y="26060" fill="#fbec5d">Maize</text><text x="40" y="26130" fill="#6050dc">Majorelle Blue</text><text x="40" y="26200" fill="#0bda51">Malachite</text><text x="40" y="26270" fill="#979aaa">Manatee</text><text x="40" y="26340" fill="#f37a48">Mandarin</text><text x="40" y="26410" fill="#fdbe02">Mango</text><text x="40" y="26480" fill="#ff8243">Mango Tango</text><text x="40" y="26550" fill="#74c365">Mantis</text><text x="40" y="26620" fill="#880085">Mardi Gras</text><text x="40" y="26690" fill="#eaa221">Marigold</text><text x="40" y="26760" fill="#c32148">Maroon</text><text x="40" y="26830" fill="#e0b0ff">Mauve</text><text x="40" y="26900" fill="#915f6d">Mauve Taupe</text><text x="40" y="26970" fill="#ef98aa">Mauvelous</text><text x="40" y="27040" fill="#47abcc">Maximum Blue</text><text x="40" y="27110" fill="#30bfbf">Maximum Blue Green</text><text x="40" y="27180" fill="#acace6">Maximum Blue Purple</text><text x="40" y="27250" fill="#5e8c31">Maximum Green</text><text x="40" y="27320" fill="#d9e650">Maximum Green Yellow</text><text x="40" y="27390" fill="#733380">Maximum Purple</text><text x="40" y="27460" fill="#d92121">Maximum Red</text><text x="40" y="27530" fill="#a63a79">Maximum Red Purple</text><text x="40" y="27600" fill="#fafa37">Maximum Yellow</text><text x="40" y="27670" fill="#f2ba49">Maximum Yellow Red</text><text x="40" y="27740" fill="#4c9141">May Green</text><text x="40" y="27810" fill="#73c2fb">Maya Blue</text><text x="40" y="27880" fill="#66ddaa">Medium Aquamarine</text><text x="40" y="27950" fill="#0000cd">Medium Blue</text><text x="40" y="28020" fill="#e2062c">Medium Candy Apple Red</text><text x="40" y="28090" fill="#af4035">Medium Carmine</text><text x="40" y="28160" fill="#f3e5ab">Medium Champagne</text><text x="40" y="28230" fill="#ba55d3">Medium Orchid</text><text x="40" y="28300" fill="#9370db">Medium Purple</text><text x="40" y="28370" fill="#3cb371">Medium Sea Green</text><text x="40" y="28440" fill="#7b68ee">Medium Slate Blue</text><text x="40" y="28510" fill="#00fa9a">Medium Spring Green</text><text x="40" y="28580" fill="#48d1cc">Medium Turquoise</text><text x="40" y="28650" fill="#c71585">Medium Violet-Red</text><text x="40" y="28720" fill="#f8b878">Mellow Apricot</text><text x="40" y="28790" fill="#f8de7e">Mellow Yellow</text><text x="40" y="28860" fill="#febaad">Melon</text><text x="40" y="28930" fill="#0a7e8c">Metallic Seaweed</text><text x="40" y="29000" fill="#9c7c38">Metallic Sunburst</text><text x="40" y="29070" fill="#d3af37">Metallic Gold</text><text x="40" y="29140" fill="#e4007c">Mexican Pink</text><text x="40" y="29210" fill="#7ed4e6">Middle Blue</text><text x="40" y="29280" fill="#8dd9cc">Middle Blue Green</text><text x="40" y="29350" fill="#8b72be">Middle Blue Purple</text><text x="40" y="29420" fill="#4d8c57">Middle Green</text><text x="40" y="29490" fill="#acbf60">Middle Green Yellow</text><text x="40" y="29560" fill="#8b8680">Middle Grey</text><text x="40" y="29630" fill="#d982b5">Middle Purple</text><text x="40" y="29700" fill="#e58e73">Middle Red</text><text x="40" y="29770" fill="#a55353">Middle Red Purple</text><text x="40" y="29840" fill="#ffeb00">Middle Yellow</text><text x="40" y="29910" fill="#ecb176">Middle Yellow Red</text><text x="40" y="29980" fill="#702670">Midnight</text><text x="40" y="30050" fill="#191970">Midnight Blue</text><text x="40" y="30120" fill="#004953">Midnight Green</text><text x="40" y="30190" fill="#ffc40c">Mikado Yellow</text><text x="40" y="30260" fill="#ffdae9">Mimi Pink</text><text x="40" y="30330" fill="#e3f988">Mindaro</text><text x="40" y="30400" fill="#36747d">Ming</text><text x="40" y="30470" fill="#f5e050">Minion Yellow</text><text x="40" y="30540" fill="#3eb489">Mint</text><text x="40" y="30610" fill="#f5fffa">Mint Cream</text><text x="40" y="30680" fill="#98ff98">Mint Green</text><text x="40" y="30750" fill="#bbb477">Misty Moss</text><text x="40" y="30820" fill="#ffe4e1">Misty Rose</text><text x="40" y="30890" fill="#967117">Mode Beige</text><text x="40" y="30960" fill="#ff948e">Mona Lisa</text><text x="40" y="31030" fill="#8da399">Morning Blue</text><text x="40" y="31100" fill="#8a9a5b">Moss Green</text><text x="40" y="31170" fill="#30ba8f">Mountain Meadow</text><text x="40" y="31240" fill="#997a8d">Mountbatten Pink</text><text x="40" y="31310" fill="#c54b8c">Mulberry</text><text x="40" y="31380" fill="#ffdb58">Mustard</text><text x="40" y="31450" fill="#317873">Myrtle Green</text><text x="40" y="31520" fill="#d65282">Mystic</text><text x="40" y="31590" fill="#ad4379">Mystic Maroon</text><text x="40" y="31660" fill="#f6adc6">Nadeshiko Pink</text><text x="40" y="31730" fill="#fada5e">Naples Yellow</text><text x="40" y="31800" fill="#ffdead">Navajo White</text><text x="40" y="31870" fill="#000080">Navy Blue</text><text x="40" y="31940" fill="#4666ff">Neon Blue</text><text x="40" y="32010" fill="#fe4164">Neon Fuchsia</text><text x="40" y="32080" fill="#39ff14">Neon Green</text><text x="40" y="32150" fill="#214fc6">New Car</text><text x="40" y="32220" fill="#d7837f">New York Pink</text><text x="40" y="32290" fill="#727472">Nickel</text><text x="40" y="32360" fill="#a4dded">Non-Photo Blue</text><text x="40" y="32430" fill="#e9ffdb">Nyanza</text><text x="40" y="32500" fill="#841617">OU Crimson Red</text><text x="40" y="32570" fill="#cc7722">Ochre</text><text x="40" y="32640" fill="#43302e">Old Burgundy</text><text x="40" y="32710" fill="#cfb53b">Old Gold</text><text x="40" y="32780" fill="#fdf5e6">Old Lace</text><text x="40" y="32850" fill="#796878">Old Lavender</text><text x="40" y="32920" fill="#673147">Old Mauve</text><text x="40" y="32990" fill="#c08081">Old Rose</text><text x="40" y="33060" fill="#848482">Old Silver</text><text x="40" y="33130" fill="#808000">Olive</text><text x="40" y="33200" fill="#3c341f">Olive Drab #7</text><text x="40" y="33270" fill="#6b8e23">Olive Drab</text><text x="40" y="33340" fill="#b5b35c">Olive Green</text><text x="40" y="33410" fill="#9ab973">Olivine</text><text x="40" y="33480" fill="#353839">Onyx</text><text x="40" y="33550" fill="#a8c3bc">Opal</text><text x="40" y="33620" fill="#b784a7">Opera Mauve</text><text x="40" y="33690" fill="#ff7f00">Orange</text><text x="40" y="33760" fill="#ff9f00">Orange Peel</text><text x="40" y="33830" fill="#fa5b3d">Orange Soda</text><text x="40" y="33900" fill="#ff681f">Orange-Red</text><text x="40" y="33970" fill="#f5bd1f">Orange-Yellow</text><text x="40" y="34040" fill="#da70d6">Orchid</text><text x="40" y="34110" fill="#f2bdcd">Orchid Pink</text><text x="40" y="34180" fill="#2d383a">Outer Space</text><text x="40" y="34250" fill="#ff6e4a">Outrageous Orange</text><text x="40" y="34320" fill="#4a0000">Oxblood</text><text x="40" y="34390" fill="#002147">Oxford Blue</text><text x="40" y="34460" fill="#1ca9c9">Pacific Blue</text><text x="40" y="34530" fill="#006600">Pakistan Green</text><text x="40" y="34600" fill="#682860">Palatinate Purple</text><text x="40" y="34670" fill="#ed7a9b">Pale Dogwood</text><text x="40" y="34740" fill="#bed3e5">Pale Aqua</text><text x="40" y="34810" fill="#9bc4e2">Pale Cerulean</text><text x="40" y="34880" fill="#fadadd">Pale Pink</text><text x="40" y="34950" fill="#fae6fa">Pale Purple</text><text x="40" y="35020" fill="#ecebbd">Pale Spring Bud</text><text x="40" y="35090" fill="#78184a">Pansy Purple</text><text x="40" y="35160" fill="#009b7d">Paolo Veronese Green</text><text x="40" y="35230" fill="#ffefd5">Papaya Whip</text><text x="40" y="35300" fill="#e63e62">Paradise Pink</text><text x="40" y="35370" fill="#f1e9d2">Parchment</text><text x="40" y="35440" fill="#50c878">Paris Green</text><text x="40" y="35510" fill="#dea5a4">Pastel Pink</text><text x="40" y="35580" fill="#800080">Patriarch</text><text x="40" y="35650" fill="#1f005e">Paua</text><text x="40" y="35720" fill="#536878">Payne's Grey</text><text x="40" y="35790" fill="#ffe5b4">Peach</text><text x="40" y="35860" fill="#ffdab9">Peach Puff</text><text x="40" y="35930" fill="#d1e231">Pear</text><text x="40" y="36000" fill="#b768a2">Pearly Purple</text><text x="40" y="36070" fill="#ccccff">Periwinkle</text><text x="40" y="36140" fill="#e12c2c">Permanent Geranium Lake</text><text x="40" y="36210" fill="#1c39bb">Persian Blue</text><text x="40" y="36280" fill="#00a693">Persian Green</text><text x="40" y="36350" fill="#32127a">Persian Indigo</text><text x="40" y="36420" fill="#d99058">Persian Orange</text><text x="40" y="36490" fill="#f77fbe">Persian Pink</text><text x="40" y="36560" fill="#701c1c">Persian Plum</text><text x="40" y="36630" fill="#cc3333">Persian Red</text><text x="40" y="36700" fill="#fe28a2">Persian Rose</text><text x="40" y="36770" fill="#ec5800">Persimmon</text><text x="40" y="36840" fill="#8ba8b7">Pewter Blue</text><text x="40" y="36910" fill="#df00ff">Phlox</text><text x="40" y="36980" fill="#000f89">Phthalo Blue</text><text x="40" y="37050" fill="#123524">Phthalo Green</text><text x="40" y="37120" fill="#2e2787">Picotee Blue</text><text x="40" y="37190" fill="#c30b4e">Pictorial Carmine</text><text x="40" y="37260" fill="#fddde6">Piggy Pink</text><text x="40" y="37330" fill="#01796f">Pine Green</text><text x="40" y="37400" fill="#ffc0cb">Pink</text><text x="40" y="37470" fill="#f78fa7">Pink Sherbet</text><text x="40" y="37540" fill="#ffddf4">Pink Lace</text><text x="40" y="37610" fill="#d8b2d1">Pink Lavender</text><text x="40" y="37680" fill="#93c572">Pistachio</text><text x="40" y="37750" fill="#e5e4e2">Platinum</text><text x="40" y="37820" fill="#8e4585">Plum</text><text x="40" y="37890" fill="#5946b2">Plump Purple</text><text x="40" y="37960" fill="#5da493">Polished Pine</text><text x="40" y="38030" fill="#86608e">Pomp and Power</text><text x="40" y="38100" fill="#be4f62">Popstar</text><text x="40" y="38170" fill="#ff5a36">Portland Orange</text><text x="40" y="38240" fill="#b0e0e6">Powder Blue</text><text x="40" y="38310" fill="#e1ca7a">Prairie Gold</text><text x="40" y="38380" fill="#f58025">Princeton Orange</text><text x="40" y="38450" fill="#701c1c">Prune</text><text x="40" y="38520" fill="#003153">Prussian Blue</text><text x="40" y="38590" fill="#df00ff">Psychedelic Purple</text><text x="40" y="38660" fill="#cc8899">Puce</text><text x="40" y="38730" fill="#644117">Pullman Brown</text><text x="40" y="38800" fill="#ff7518">Pumpkin</text><text x="40" y="38870" fill="#6a0dad">Purple</text><text x="40" y="38940" fill="#9c51b6">Purple Plum</text><text x="40" y="39010" fill="#9678b6">Purple Mountain Majesty</text><text x="40" y="39080" fill="#4e5180">Purple Navy</text><text x="40" y="39150" fill="#fe4eda">Purple Pizzazz</text><text x="40" y="39220" fill="#9a4eae">Purpureus</text><text x="40" y="39290" fill="#436b95">Queen Blue</text><text x="40" y="39360" fill="#e8ccd7">Queen Pink</text><text x="40" y="39430" fill="#a6a6a6">Quick Silver</text><text x="40" y="39500" fill="#8e3a59">Quinacridone Magenta</text><text x="40" y="39570" fill="#ff355e">Radical Red</text><text x="40" y="39640" fill="#242124">Raisin Black</text><text x="40" y="39710" fill="#fbab60">Rajah</text><text x="40" y="39780" fill="#e30b5d">Raspberry</text><text x="40" y="39850" fill="#915f6d">Raspberry Glacé</text><text x="40" y="39920" fill="#b3446c">Raspberry Rose</text><text x="40" y="39990" fill="#d68a59">Raw Sienna</text><text x="40" y="40060" fill="#826644">Raw Umber</text><text x="40" y="40130" fill="#ff33cc">Razzle Dazzle Rose</text><text x="40" y="40200" fill="#e3256b">Razzmatazz</text><text x="40" y="40270" fill="#8d4e85">Razzmic Berry</text><text x="40" y="40340" fill="#663399">Rebecca Purple</text><text x="40" y="40410" fill="#ff0000">Red</text><text x="40" y="40480" fill="#fd3a4a">Red Salsa</text><text x="40" y="40550" fill="#ff5349">Red-Orange</text><text x="40" y="40620" fill="#e40078">Red-Purple</text><text x="40" y="40690" fill="#c71585">Red-Violet</text><text x="40" y="40760" fill="#a45a52">Redwood</text><text x="40" y="40830" fill="#002387">Resolution Blue</text><text x="40" y="40900" fill="#777696">Rhythm</text><text x="40" y="40970" fill="#004040">Rich Black</text><text x="40" y="41040" fill="#444c38">Rifle Green</text><text x="40" y="41110" fill="#00cccc">Robin Egg Blue</text><text x="40" y="41180" fill="#8a7f80">Rocket Metallic</text><text x="40" y="41250" fill="#a91101">Rojo Spanish Red</text><text x="40" y="41320" fill="#838996">Roman Silver</text><text x="40" y="41390" fill="#ff007f">Rose</text><text x="40" y="41460" fill="#9e5e6f">Rose Dust</text><text x="40" y="41530" fill="#ed7a9b">Rose Pompadour</text><text x="40" y="41600" fill="#f9429e">Rose Bonbon</text><text x="40" y="41670" fill="#674846">Rose Ebony</text><text x="40" y="41740" fill="#e32636">Rose Madder</text><text x="40" y="41810" fill="#ff66cc">Rose Pink</text><text x="40" y="41880" fill="#c21e56">Rose Red</text><text x="40" y="41950" fill="#905d5d">Rose Taupe</text><text x="40" y="42020" fill="#ab4e52">Rose Vale</text><text x="40" y="42090" fill="#65000b">Rosewood</text><text x="40" y="42160" fill="#d40000">Rosso Corsa</text><text x="40" y="42230" fill="#bc8f8f">Rosy Brown</text><text x="40" y="42300" fill="#002366">Royal Blue</text><text x="40" y="42370" fill="#7851a9">Royal Purple</text><text x="40" y="42440" fill="#fada5e">Royal Yellow</text><text x="40" y="42510" fill="#ce4676">Ruber</text><text x="40" y="42580" fill="#d10056">Rubine Red</text><text x="40" y="42650" fill="#e0115f">Ruby</text><text x="40" y="42720" fill="#9b111e">Ruby Red</text><text x="40" y="42790" fill="#a81c07">Rufous</text><text x="40" y="42860" fill="#80461b">Russet</text><text x="40" y="42930" fill="#679267">Russian Green</text><text x="40" y="43000" fill="#32174d">Russian Violet</text><text x="40" y="43070" fill="#b7410e">Rust</text><text x="40" y="43140" fill="#da2c43">Rusty Red</text><text x="40" y="43210" fill="#043927">Sacramento State Green</text><text x="40" y="43280" fill="#8b4513">Saddle Brown</text><text x="40" y="43350" fill="#ff7800">Safety Orange</text><text x="40" y="43420" fill="#eed202">Safety Yellow</text><text x="40" y="43490" fill="#f4c430">Saffron</text><text x="40" y="43560" fill="#bcb88a">Sage</text><text x="40" y="43630" fill="#fa8072">Salmon</text><text x="40" y="43700" fill="#ff91a4">Salmon Pink</text><text x="40" y="43770" fill="#c2b280">Sand</text><text x="40" y="43840" fill="#967117">Sand Dune</text><text x="40" y="43910" fill="#f4a460">Sandy Brown</text><text x="40" y="43980" fill="#507d2a">Sap Green</text><text x="40" y="44050" fill="#0f52ba">Sapphire</text><text x="40" y="44120" fill="#0067a5">Sapphire Blue</text><text x="40" y="44190" fill="#cba135">Satin Sheen Gold</text><text x="40" y="44260" fill="#ff2400">Scarlet</text><text x="40" y="44330" fill="#ff91af">Schauss Pink</text><text x="40" y="44400" fill="#ffd800">School Bus Yellow</text><text x="40" y="44470" fill="#66ff66">Screamin' Green</text><text x="40" y="44540" fill="#2e8b57">Sea Green</text><text x="40" y="44610" fill="#59260b">Seal Brown</text><text x="40" y="44680" fill="#612086">Seance</text><text x="40" y="44750" fill="#fff5ee">Seashell</text><text x="40" y="44820" fill="#764374">Secret</text><text x="40" y="44890" fill="#ffba00">Selective Yellow</text><text x="40" y="44960" fill="#704214">Sepia</text><text x="40" y="45030" fill="#8a795d">Shadow</text><text x="40" y="45100" fill="#778ba5">Shadow Blue</text><text x="40" y="45170" fill="#009e60">Shamrock Green</text><text x="40" y="45240" fill="#8fd400">Sheen Green</text><text x="40" y="45310" fill="#d98695">Shimmering Blush</text><text x="40" y="45380" fill="#5fa778">Shiny Shamrock</text><text x="40" y="45450" fill="#fc0fc0">Shocking Pink</text><text x="40" y="45520" fill="#882d17">Sienna</text><text x="40" y="45590" fill="#c0c0c0">Silver</text><text x="40" y="45660" fill="#acacac">Silver Chalice</text><text x="40" y="45730" fill="#c4aead">Silver Pink</text><text x="40" y="45800" fill="#bfc1c2">Silver Sand</text><text x="40" y="45870" fill="#cb410b">Sinopia</text><text x="40" y="45940" fill="#ff3855">Sizzling Red</text><text x="40" y="46010" fill="#ffdb00">Sizzling Sunrise</text><text x="40" y="46080" fill="#007474">Skobeloff</text><text x="40" y="46150" fill="#87ceeb">Sky Blue</text><text x="40" y="46220" fill="#cf71af">Sky Magenta</text><text x="40" y="46290" fill="#6a5acd">Slate Blue</text><text x="40" y="46360" fill="#708090">Slate Gray</text><text x="40" y="46430" fill="#299617">Slimy Green</text><text x="40" y="46500" fill="#c84186">Smitten</text><text x="40" y="46570" fill="#100c08">Smoky Black</text><text x="40" y="46640" fill="#fffafa">Snow</text><text x="40" y="46710" fill="#893843">Solid Pink</text><text x="40" y="46780" fill="#757575">Sonic Silver</text><text x="40" y="46850" fill="#1d2951">Space Cadet</text><text x="40" y="46920" fill="#807532">Spanish Bistre</text><text x="40" y="46990" fill="#0070b8">Spanish Blue</text><text x="40" y="47060" fill="#d10047">Spanish Carmine</text><text x="40" y="47130" fill="#989898">Spanish Gray</text><text x="40" y="47200" fill="#009150">Spanish Green</text><text x="40" y="47270" fill="#e86100">Spanish Orange</text><text x="40" y="47340" fill="#f7bfbe">Spanish Pink</text><text x="40" y="47410" fill="#e60026">Spanish Red</text><text x="40" y="47480" fill="#00fffe">Spanish Sky Blue</text><text x="40" y="47550" fill="#4c2882">Spanish Violet</text><text x="40" y="47620" fill="#007f5c">Spanish Viridian</text><text x="40" y="47690" fill="#87ff2a">Spring Frost</text><text x="40" y="47760" fill="#a7fc00">Spring Bud</text><text x="40" y="47830" fill="#00ff7f">Spring Green</text><text x="40" y="47900" fill="#23297a">St. Patrick's Blue</text><text x="40" y="47970" fill="#007bb8">Star Command Blue</text><text x="40" y="48040" fill="#4682b4">Steel Blue</text><text x="40" y="48110" fill="#cc33cc">Steel Pink</text><text x="40" y="48180" fill="#fada5e">Stil De Grain Yellow</text><text x="40" y="48250" fill="#900910">Stizza</text><text x="40" y="48320" fill="#e4d96f">Straw</text><text x="40" y="48390" fill="#fa5053">Strawberry</text><text x="40" y="48460" fill="#ff9361">Strawberry Blonde</text><text x="40" y="48530" fill="#33cc33">Strong Lime Green</text><text x="40" y="48600" fill="#914e75">Sugar Plum</text><text x="40" y="48670" fill="#ffcc33">Sunglow</text><text x="40" y="48740" fill="#e3ab57">Sunray</text><text x="40" y="48810" fill="#fad6a5">Sunset</text><text x="40" y="48880" fill="#cf6ba9">Super Pink</text><text x="40" y="48950" fill="#a83731">Sweet Brown</text><text x="40" y="49020" fill="#d44500">Syracuse Orange</text><text x="40" y="49090" fill="#d2b48c">Tan</text><text x="40" y="49160" fill="#f28500">Tangerine</text><text x="40" y="49230" fill="#e4717a">Tango Pink</text><text x="40" y="49300" fill="#fb4d46">Tart Orange</text><text x="40" y="49370" fill="#483c32">Taupe</text><text x="40" y="49440" fill="#8b8589">Taupe Gray</text><text x="40" y="49510" fill="#d0f0c0">Tea Green</text><text x="40" y="49580" fill="#f4c2c2">Tea Rose</text><text x="40" y="49650" fill="#008080">Teal</text><text x="40" y="49720" fill="#367588">Teal Blue</text><text x="40" y="49790" fill="#00ffbf">Technobotanica</text><text x="40" y="49860" fill="#cf3476">Telemagenta</text><text x="40" y="49930" fill="#cd5700">Tenné</text><text x="40" y="50000" fill="#e2725b">Terra Cotta</text><text x="40" y="50070" fill="#d8bfd8">Thistle</text><text x="40" y="50140" fill="#de6fa1">Thulian Pink</text><text x="40" y="50210" fill="#fc89ac">Tickle Me Pink</text><text x="40" y="50280" fill="#0abab5">Tiffany Blue</text><text x="40" y="50350" fill="#dbd7d2">Timberwolf</text><text x="40" y="50420" fill="#eee600">Titanium Yellow</text><text x="40" y="50490" fill="#ff6347">Tomato</text><text x="40" y="50560" fill="#86a1a9">Tourmaline</text><text x="40" y="50630" fill="#00755e">Tropical Rainforest</text><text x="40" y="50700" fill="#2d68c4">True Blue</text><text x="40" y="50770" fill="#1c05b3">Trypan Blue</text><text x="40" y="50840" fill="#3e8ede">Tufts Blue</text><text x="40" y="50910" fill="#deaa88">Tumbleweed</text><text x="40" y="50980" fill="#40e0d0">Turquoise</text><text x="40" y="51050" fill="#00ffef">Turquoise Blue</text><text x="40" y="51120" fill="#a0d6b4">Turquoise Green</text><text x="40" y="51190" fill="#8a9a5b">Turtle Green</text><text x="40" y="51260" fill="#fad6a5">Tuscan</text><text x="40" y="51330" fill="#6f4e37">Tuscan Brown</text><text x="40" y="51400" fill="#7c4848">Tuscan Red</text><text x="40" y="51470" fill="#a67b5b">Tuscan Tan</text><text x="40" y="51540" fill="#c09999">Tuscany</text><text x="40" y="51610" fill="#8a496b">Twilight Lavender</text><text x="40" y="51680" fill="#66023c">Tyrian Purple</text><text x="40" y="51750" fill="#0033aa">UA Blue</text><text x="40" y="51820" fill="#d9004c">UA Red</text><text x="40" y="51890" fill="#014421">UP Forest Green</text><text x="40" y="51960" fill="#7b1113">UP Maroon</text><text x="40" y="52030" fill="#004f98">USAFA Blue</text><text x="40" y="52100" fill="#ff6fff">Ultra Pink</text><text x="40" y="52170" fill="#fc6c85">Ultra Red</text><text x="40" y="52240" fill="#3f00ff">Ultramarine</text><text x="40" y="52310" fill="#4166f5">Ultramarine Blue</text><text x="40" y="52380" fill="#635147">Umber</text><text x="40" y="52450" fill="#ffddca">Unbleached Silk</text><text x="40" y="52520" fill="#009edb">United Nations Blue</text><text x="40" y="52590" fill="#a50021">University of Pennsylvania Red</text><text x="40" y="52660" fill="#ffff66">Unmellow Yellow</text><text x="40" y="52730" fill="#ae2029">Upsdell Red</text><text x="40" y="52800" fill="#afdbf5">Uranian Blue</text><text x="40" y="52870" fill="#664228">Van Dyke Brown</text><text x="40" y="52940" fill="#f3e5ab">Vanilla</text><text x="40" y="53010" fill="#f38fa9">Vanilla Ice</text><text x="40" y="53080" fill="#c5b358">Vegas Gold</text><text x="40" y="53150" fill="#c80815">Venetian Red</text><text x="40" y="53220" fill="#43b3ae">Verdigris</text><text x="40" y="53290" fill="#e34234">Vermilion</text><text x="40" y="53360" fill="#a020f0">Veronica</text><text x="40" y="53430" fill="#8f00ff">Violet</text><text x="40" y="53500" fill="#324ab2">Violet-Blue</text><text x="40" y="53570" fill="#f75394">Violet-Red</text><text x="40" y="53640" fill="#f0599c">Violet-red</text><text x="40" y="53710" fill="#40826d">Viridian</text><text x="40" y="53780" fill="#009698">Viridian Green</text><text x="40" y="53850" fill="#9f1d35">Vivid Burgundy</text><text x="40" y="53920" fill="#00ccff">Vivid Sky Blue</text><text x="40" y="53990" fill="#ffa089">Vivid Tangerine</text><text x="40" y="54060" fill="#9f00ff">Vivid Violet</text><text x="40" y="54130" fill="#ceff00">Volt</text><text x="40" y="54200" fill="#004242">Warm Black</text><text x="40" y="54270" fill="#189bcc">Weezy Blue</text><text x="40" y="54340" fill="#f5deb3">Wheat</text><text x="40" y="54410" fill="#ffffff">White</text><text x="40" y="54480" fill="#ff43a4">Wild Strawberry</text><text x="40" y="54550" fill="#a2add0">Wild Blue Yonder</text><text x="40" y="54620" fill="#d470a2">Wild Orchid</text><text x="40" y="54690" fill="#fc6c85">Wild Watermelon</text><text x="40" y="54760" fill="#a75502">Windsor Tan</text><text x="40" y="54830" fill="#722f37">Wine</text><text x="40" y="54900" fill="#673147">Wine Dregs</text><text x="40" y="54970" fill="#ff007c">Winter Sky</text><text x="40" y="55040" fill="#56887d">Wintergreen Dream</text><text x="40" y="55110" fill="#c9a0dc">Wisteria</text><text x="40" y="55180" fill="#c19a6b">Wood Brown</text><text x="40" y="55250" fill="#738678">Xanadu</text><text x="40" y="55320" fill="#eeed09">Xanthic</text><text x="40" y="55390" fill="#f1b42f">Xanthous</text><text x="40" y="55460" fill="#2e5090">YInMn Blue</text><text x="40" y="55530" fill="#00356b">Yale Blue</text><text x="40" y="55600" fill="#ffff00">Yellow</text><text x="40" y="55670" fill="#ffae42">Yellow Orange</text><text x="40" y="55740" fill="#fff700">Yellow Sunshine</text><text x="40" y="55810" fill="#9acd32">Yellow-Green</text><text x="40" y="55880" fill="#0014a8">Zaffre</text><text x="40" y="55950" fill="#2c1608">Zinnwaldite Brown</text><text x="40" y="56020" fill="#39a78e">Zomp</text>
</svg>